<svg xmlns="http://www.w3.org/2000/svg" width="35.074" height="55.501" viewBox="0 0 35.074 55.501">
  <g id="PhoneIcon" transform="translate(-549.092 -278.898)">
    <path id="Bk" d="M178.357,0h24.475a5.347,5.347,0,0,1,5.3,5.3V50.2a5.347,5.347,0,0,1-5.3,5.3H178.357a5.347,5.347,0,0,1-5.3-5.3V5.3a5.347,5.347,0,0,1,5.3-5.3Z" transform="translate(376.035 278.898)" fill="#a0c6b9"/>
    <path id="Path_15" data-name="Path 15" d="M316.444,488.9A1.419,1.419,0,0,1,315,487.458a1.4,1.4,0,0,1,1.445-1.348h4.047a1.4,1.4,0,0,1,1.445,1.348,1.419,1.419,0,0,1-1.445,1.445Z" transform="translate(248.161 -159.033)" fill="#0c7555" fill-rule="evenodd"/>
    <path id="Path_16" data-name="Path 16" d="M213.89,66.109h26.979v39.506H213.89Z" transform="translate(339.249 219.341)" fill="#0c7555" fill-rule="evenodd"/>
    <path id="Path_18" data-name="Path 18" d="M178.357,0h24.475a5.347,5.347,0,0,1,5.3,5.3V50.2a5.347,5.347,0,0,1-5.3,5.3H178.357a5.347,5.347,0,0,1-5.3-5.3V5.3a5.347,5.347,0,0,1,5.3-5.3Zm24.475,2.409H178.357A2.964,2.964,0,0,0,175.466,5.3V50.2A2.88,2.88,0,0,0,178.357,53h24.475a2.881,2.881,0,0,0,2.891-2.794V5.3a2.964,2.964,0,0,0-2.891-2.891Z" transform="translate(376.035 278.898)" fill="#fff"/>
  </g>
</svg>
