<?xml version="1.0" encoding="utf-8"?>
<!-- Generator: Adobe Illustrator 27.0.0, SVG Export Plug-In . SVG Version: 6.00 Build 0)  -->
<svg version="1.1" id="Layer_1" xmlns="http://www.w3.org/2000/svg" xmlns:xlink="http://www.w3.org/1999/xlink" x="0px" y="0px"
	 viewBox="0 0 512 448" style="enable-background:new 0 0 512 448;" xml:space="preserve">
<style type="text/css">
	.st0{fill:#0E7458;}
</style>
<path id="hamberger_Icon" class="st0" d="M20,448c-11,0-20-9-20-20v-24c0-11,9-20,20-20h472c11,0,20,9,20,20v24c0,11-9,20-20,20H20z
	 M20,256c-11,0-20-9-20-20v-24c0-11,9-20,20-20h472c11,0,20,9,20,20v24c0,11-9,20-20,20H20z M20,64C9,64,0,55,0,44V20C0,9,9,0,20,0
	h472c11,0,20,9,20,20v24c0,11-9,20-20,20H20z"/>
</svg>
