<svg xmlns="http://www.w3.org/2000/svg" width="20.267" height="16" viewBox="0 0 20.267 16">
  <g id="mail" transform="translate(-562.378 -352.429)">
    <path id="Path_11" data-name="Path 11" d="M573.138,359.769l8.86-5.52a.728.728,0,0,0,.19-1.074,2.019,2.019,0,0,0-1.57-.746H564.4a2.021,2.021,0,0,0-1.637.831.723.723,0,0,0,.22,1.037l8.9,5.472A1.2,1.2,0,0,0,573.138,359.769Zm-1.253,2.274-8.766-5.392a.485.485,0,0,0-.741.406v9.372a2.013,2.013,0,0,0,2.027,2h16.213a2.013,2.013,0,0,0,2.027-2v-9.436a.485.485,0,0,0-.743-.4l-8.764,5.455A1.2,1.2,0,0,1,571.885,362.043Z" transform="translate(0 0)" fill="#0e7458"/>
  </g>
</svg>
